<mxfile host="Electron" modified="2024-07-06T03:08:32.940Z" agent="Mozilla/5.0 (Windows NT 10.0; Win64; x64) AppleWebKit/537.36 (KHTML, like Gecko) draw.io/21.2.8 Chrome/112.0.5615.165 Electron/24.2.0 Safari/537.36" etag="SPPIiq4CWV8bxOn6x5Br" version="21.2.8" type="device">
  <diagram name="PÃ¡gina-1" id="2OeXDihg_fIPPKKTvWBn">
    <mxGraphModel dx="1098" dy="820" grid="1" gridSize="10" guides="1" tooltips="1" connect="1" arrows="1" fold="1" page="1" pageScale="1" pageWidth="827" pageHeight="1169" math="0" shadow="0">
      <root>
        <mxCell id="0" />
        <mxCell id="1" parent="0" />
        <mxCell id="fPQ4YBQcnxPUUyc6UAJQ-1" value="" style="whiteSpace=wrap;html=1;aspect=fixed;" vertex="1" parent="1">
          <mxGeometry x="230" y="240" width="330" height="330" as="geometry" />
        </mxCell>
        <mxCell id="fPQ4YBQcnxPUUyc6UAJQ-10" value="Nombre" style="rounded=0;whiteSpace=wrap;html=1;" vertex="1" parent="1">
          <mxGeometry x="230" y="240" width="170" height="20" as="geometry" />
        </mxCell>
        <mxCell id="fPQ4YBQcnxPUUyc6UAJQ-11" value="Raza" style="rounded=0;whiteSpace=wrap;html=1;" vertex="1" parent="1">
          <mxGeometry x="230" y="260" width="170" height="20" as="geometry" />
        </mxCell>
        <mxCell id="fPQ4YBQcnxPUUyc6UAJQ-12" value="Logotipo" style="rounded=0;whiteSpace=wrap;html=1;" vertex="1" parent="1">
          <mxGeometry x="400" y="240" width="160" height="40" as="geometry" />
        </mxCell>
        <mxCell id="fPQ4YBQcnxPUUyc6UAJQ-14" value="Estados" style="rounded=0;whiteSpace=wrap;html=1;" vertex="1" parent="1">
          <mxGeometry x="230" y="280" width="330" height="290" as="geometry" />
        </mxCell>
      </root>
    </mxGraphModel>
  </diagram>
</mxfile>
